<?xml version="1.0" encoding="utf-8"?>
<!-- Generator: Adobe Illustrator 22.0.1, SVG Export Plug-In . SVG Version: 6.00 Build 0)  -->
<svg version="1.1" id="Layer_1" xmlns="http://www.w3.org/2000/svg" xmlns:xlink="http://www.w3.org/1999/xlink" x="0px" y="0px"
	 viewBox="0 0 108.8 108.8" enable-background="new 0 0 108.8 108.8" xml:space="preserve">
<g>
	<g>
		<path fill="#FFFFFF" d="M42.5,54.1h1.6c0.7,0,1.2-0.4,1.2-1.2v-1.2c0-0.7-0.5-1.2-1.2-1.2h-2c-0.7,0-1.2,0.4-1.2,1.2v1.1h-1.2
			v-1.1c0-1.3,0.9-2.2,2.2-2.2h2.4c1.3,0,2.2,0.9,2.2,2.2v0.9c0,1-0.5,1.7-1.2,2c0.8,0.3,1.3,1,1.3,2v1c0,1.3-0.9,2.2-2.2,2.2H42
			c-1.3,0-2.2-0.9-2.2-2.2v-1.1H41v1.1c0,0.7,0.4,1.2,1.2,1.2h2c0.7,0,1.2-0.4,1.2-1.2v-1.2c0-0.7-0.5-1.2-1.2-1.2h-1.7V54.1z"/>
		<path fill="#FFFFFF" d="M50.5,54.3c0.3-0.3,0.8-0.4,1.3-0.4h2c1.3,0,2.2,0.9,2.2,2.2v1.5c0,1.3-0.9,2.2-2.2,2.2h-2.4
			c-1.3,0-2.2-0.9-2.2-2.2v-5.8c0-1.3,0.9-2.2,2.2-2.2h2.4c1.3,0,2.2,0.9,2.2,2.2v0.9h-1.2v-0.8c0-0.7-0.5-1.2-1.2-1.2h-2
			c-0.7,0-1.2,0.4-1.2,1.2V54.3z M54.8,57.5v-1.4c0-0.7-0.5-1.2-1.2-1.2h-2c-0.7,0-1.1,0.4-1.2,1.1v1.5c0,0.7,0.4,1.2,1.2,1.2h2
			C54.3,58.7,54.8,58.2,54.8,57.5z"/>
		<path fill="#FFFFFF" d="M63.5,59.7h-2.7c-1.3,0-2.2-0.9-2.2-2.2v-5.8c0-1.3,0.9-2.2,2.2-2.2h2.7c1.3,0,2.2,0.9,2.2,2.2v5.8
			C65.7,58.8,64.8,59.7,63.5,59.7z M64.5,51.8c0-0.7-0.4-1.2-1.2-1.2h-2.3c-0.7,0-1.2,0.4-1.2,1.2v5.7c0,0.7,0.4,1.2,1.2,1.2h2.3
			c0.7,0,1.2-0.5,1.2-1.2V51.8z"/>
		<path fill="#FFFFFF" d="M69.8,49.4c1.2,0,2,0.8,2,2c0,1.2-0.8,2-2,2c-1.2,0-2-0.8-2-2C67.8,50.3,68.6,49.4,69.8,49.4z M69.8,52.6
			c0.7,0,1.2-0.5,1.2-1.2c0-0.7-0.5-1.2-1.2-1.2s-1.2,0.5-1.2,1.2C68.5,52.1,69,52.6,69.8,52.6z"/>
	</g>
</g>
<g>
	<path fill="#FFFFFF" d="M54.4,106.4c-4.6,0-9-2.3-12.9-6.8C29.1,85.4,28.1,61.4,28.1,54.4c0-14.2,2.9-27.5,8.1-37.5
		c3.5-6.6,9.5-14.4,18.1-14.5c7,0,12.2,5.6,14.6,8.9l1.2,1.6l-3.1,2.3l10,5l-1.9-11l-3.1,2.3l-1.2-1.6C67.5,5.4,61.9,0,54.4,0
		c-15.6,0.1-23,21.1-24.9,27.6c-2.4,8.3-3.7,17.3-3.7,26.8c0,26.4,9,43.2,17.4,50.1c3.6,2.9,7.3,4.3,11.3,4.3
		c10.6-0.1,17.5-10.2,21-17.4c-0.9,0.2-1.9,0.4-2.9,0.5l0,0C69,98.5,63.1,106.4,54.4,106.4z"/>
	<path fill="#FFFFFF" d="M9.2,41.5c2.2-1.9,4.8-3.7,7.7-5.2c0.2-1,0.3-2,0.5-2.9c-5.5,2.7-9.9,6-13.1,9.8C1.4,46.8,0,50.4,0,54.4
		c0,6.2,3.8,11.1,7,14.1l1.4,1.4l-2.6,2.8l10.7,3.1l-3.9-10.5L10,68.1l-1.5-1.4C6.6,65,5.1,63,4.1,61c-1.5-2.8-2-5.7-1.6-8.6
		C3.1,48.5,5.3,44.9,9.2,41.5z"/>
	<path fill="#FFFFFF" d="M80,63.4c0.9-0.3,1.7-0.6,2.5-0.9c0.4-3.6,0.6-7.4,0.6-11.2c0-0.7,0-1.3,0-2l0-1.1c0-0.5,0-0.7,0-1.3l0-0.4
		l-2.3,0.2l0,0.1l0,0c0,0.2,0,0.5,0,0.8l0.1,3.2h0l0,0.6h0C80.7,55.5,80.4,59.6,80,63.4z"/>
	<path fill="#FFFFFF" d="M81.2,29.5c-8.3-2.4-17.3-3.7-26.8-3.7c-3.7,0-7.4,0.2-11.1,0.6c-0.3,0.8-0.6,1.6-0.9,2.5
		c4-0.5,8.1-0.7,12-0.7c14.2,0,27.5,2.9,37.5,8.1c6.6,3.5,14.4,9.5,14.5,18.1c0,4.6-2.3,9-6.8,12.9C85.4,79.7,61.4,80.7,54.4,80.7
		c-4,0-8-0.2-11.5-0.6l-0.3,2.3c3.7,0.4,7.7,0.7,11.8,0.7c26.4,0,43.2-9,50.1-17.4c2.9-3.6,4.3-7.3,4.3-11.3
		C108.7,38.8,87.7,31.4,81.2,29.5z"/>
</g>
</svg>
