<?xml version="1.0" encoding="utf-8"?>
<!-- Generator: Adobe Illustrator 22.1.0, SVG Export Plug-In . SVG Version: 6.00 Build 0)  -->
<svg version="1.1" id="Layer_1" xmlns="http://www.w3.org/2000/svg" xmlns:xlink="http://www.w3.org/1999/xlink" x="0px" y="0px"
	 viewBox="0 0 22.2 18.1" style="enable-background:new 0 0 22.2 18.1;" xml:space="preserve">
<style type="text/css">
	.st0{opacity:0.9;fill:#FFFFFF;}
</style>
<path class="st0" d="M0,16c2,1.3,4.4,2,7,2c8.5,0,13.2-7.1,13-13.6c0.9-0.6,1.7-1.4,2.3-2.4c-0.8,0.4-1.7,0.6-2.6,0.7
	c0.9-0.6,1.7-1.5,2-2.5c-0.9,0.5-1.9,0.9-2.9,1.1c-0.8-0.9-2-1.4-3.3-1.4c-2.9,0-5.1,2.7-4.4,5.6c-3.8-0.2-7.1-2-9.4-4.8
	C0.4,2.9,0.9,5.6,3,6.9c-0.7,0-1.5-0.2-2.1-0.6c0,2.1,1.5,4.1,3.7,4.5c-0.6,0.2-1.3,0.2-2.1,0.1c0.6,1.8,2.3,3.1,4.3,3.2
	C4.8,15.6,2.4,16.3,0,16z"/>
</svg>
