<svg id="Layer_1" data-name="Layer 1" xmlns="http://www.w3.org/2000/svg" width="212.1" height="236.92" viewBox="0 0 212.1 236.92"><defs><style>.cls-1{fill:#fff;}</style></defs><title>VolumeIcon_On</title><path class="cls-1" d="M34.2,199.5H68.4l72.9,66.6a9.53,9.53,0,0,0,6,2.4,8,8,0,0,0,3.6-.9,9.13,9.13,0,0,0,5.4-8.1V40.5a8.51,8.51,0,0,0-5.4-8.1,8.63,8.63,0,0,0-9.6,1.5L68.7,100.5H34.2a8.84,8.84,0,0,0-9,9v81.3A9,9,0,0,0,34.2,199.5Zm104.1,39.6L81,186.6V113.4l57.3-52.5ZM43.2,118.5H63v63.3H43.2Z" transform="translate(-25.2 -31.58)"/><path class="cls-1" d="M171,197.7a9.53,9.53,0,0,0,6,2.4,8.51,8.51,0,0,0,6.6-3c26.1-28.2,26.1-70.8-.3-95.1a8.92,8.92,0,1,0-12,13.2c18.9,17.4,18.6,48.6-.9,69.6C167.1,188.7,167.1,194.4,171,197.7Z" transform="translate(-25.2 -31.58)"/><path class="cls-1" d="M219.3,147.3c0,26.1-10.5,51.6-28.8,71.7a9,9,0,0,0,.6,12.6,9.53,9.53,0,0,0,6,2.4,8.51,8.51,0,0,0,6.6-3c21.6-23.4,33.6-53.1,33.6-84s-11.7-59.1-33.6-79.2a8.92,8.92,0,0,0-12,13.2C209.7,98.1,219.6,121.5,219.3,147.3Z" transform="translate(-25.2 -31.58)"/></svg>